<?xml version="1.0" encoding="UTF-8" standalone="no"?>
<svg
   xmlns:dc="http://purl.org/dc/elements/1.1/"
   xmlns:cc="http://creativecommons.org/ns#"
   xmlns:rdf="http://www.w3.org/1999/02/22-rdf-syntax-ns#"
   xmlns:svg="http://www.w3.org/2000/svg"
   xmlns="http://www.w3.org/2000/svg"
   xmlns:xlink="http://www.w3.org/1999/xlink"
   xmlns:sodipodi="http://sodipodi.sourceforge.net/DTD/sodipodi-0.dtd"
   xmlns:inkscape="http://www.inkscape.org/namespaces/inkscape"
   width="16px"
   height="16px"
   viewBox="0 0 16 16"
   version="1.1"
   id="svg62"
   sodipodi:docname="com.github.mpobaschnig.Vaults-symbolic.svg"
   inkscape:version="1.0.2 (e86c870879, 2021-01-15, custom)">
  <metadata
     id="metadata66">
    <rdf:RDF>
      <cc:Work
         rdf:about="">
        <dc:format>image/svg+xml</dc:format>
        <dc:type
           rdf:resource="http://purl.org/dc/dcmitype/StillImage" />
        <dc:title></dc:title>
      </cc:Work>
    </rdf:RDF>
  </metadata>
  <sodipodi:namedview
     pagecolor="#ffffff"
     bordercolor="#666666"
     borderopacity="1"
     objecttolerance="10"
     gridtolerance="10"
     guidetolerance="10"
     inkscape:pageopacity="0"
     inkscape:pageshadow="2"
     inkscape:window-width="1920"
     inkscape:window-height="1043"
     id="namedview64"
     showgrid="true"
     inkscape:zoom="45.254834"
     inkscape:cx="15.961584"
     inkscape:cy="8.5906438"
     inkscape:window-x="0"
     inkscape:window-y="0"
     inkscape:window-maximized="1"
     inkscape:current-layer="svg62"
     showguides="true"
     inkscape:guide-bbox="true">
    <inkscape:grid
       type="xygrid"
       id="grid891"
       empspacing="0.5" />
    <sodipodi:guide
       position="8,16.264031"
       orientation="1,0"
       id="guide1005" />
    <sodipodi:guide
       position="0.50165802,8"
       orientation="0,-1"
       id="guide1007" />
    <sodipodi:guide
       position="7.5,16"
       orientation="-1,0"
       id="guide1011"
       inkscape:label=""
       inkscape:locked="false"
       inkscape:color="rgb(0,0,255)" />
    <sodipodi:guide
       position="8.5,16"
       orientation="-1,0"
       id="guide1015"
       inkscape:label=""
       inkscape:locked="false"
       inkscape:color="rgb(0,0,255)" />
    <sodipodi:guide
       position="0,8.5"
       orientation="0,1"
       id="guide1019"
       inkscape:label=""
       inkscape:locked="false"
       inkscape:color="rgb(0,0,255)" />
    <sodipodi:guide
       position="0,7.5"
       orientation="0,1"
       id="guide1021"
       inkscape:label=""
       inkscape:locked="false"
       inkscape:color="rgb(0,0,255)" />
  </sodipodi:namedview>
  <defs
     id="defs49">
    <filter
       id="alpha"
       filterUnits="objectBoundingBox"
       x="0%"
       y="0%"
       width="100%"
       height="100%">
      <feColorMatrix
         type="matrix"
         in="SourceGraphic"
         values="0 0 0 0 1 0 0 0 0 1 0 0 0 0 1 0 0 0 1 0"
         id="feColorMatrix2" />
    </filter>
    <mask
       id="mask0">
      <g
         filter="url(#alpha)"
         id="g7">
        <rect
           x="0"
           y="0"
           width="16"
           height="16"
           style="fill:rgb(0%,0%,0%);fill-opacity:0.1;stroke:none;"
           id="rect5" />
      </g>
    </mask>
    <clipPath
       id="clip1">
      <rect
         x="0"
         y="0"
         width="192"
         height="152"
         id="rect10" />
    </clipPath>
    <g
       id="surface10818"
       clip-path="url(#clip1)">
      <path
         style="fill:none;stroke-width:0.99;stroke-linecap:butt;stroke-linejoin:miter;stroke:rgb(0%,0%,0%);stroke-opacity:1;stroke-dasharray:0.99,0.99;stroke-miterlimit:4;"
         d="M 123.503906 236 C 123.503906 268.863281 96.863281 295.503906 64 295.503906 C 31.136719 295.503906 4.496094 268.863281 4.496094 236 C 4.496094 203.136719 31.136719 176.496094 64 176.496094 C 96.863281 176.496094 123.503906 203.136719 123.503906 236 Z M 123.503906 236 "
         transform="matrix(1,0,0,1,8,-156)"
         id="path13" />
    </g>
    <mask
       id="mask1">
      <g
         filter="url(#alpha)"
         id="g18">
        <rect
           x="0"
           y="0"
           width="16"
           height="16"
           style="fill:rgb(0%,0%,0%);fill-opacity:0.1;stroke:none;"
           id="rect16" />
      </g>
    </mask>
    <clipPath
       id="clip2">
      <rect
         x="0"
         y="0"
         width="192"
         height="152"
         id="rect21" />
    </clipPath>
    <g
       id="surface10821"
       clip-path="url(#clip2)">
      <path
         style="fill:none;stroke-width:0.99;stroke-linecap:butt;stroke-linejoin:miter;stroke:rgb(0%,0%,0%);stroke-opacity:1;stroke-dasharray:0.99,0.99;stroke-miterlimit:4;"
         d="M 29.195312 180.496094 L 98.804688 180.496094 C 103.609375 180.496094 107.503906 184.046875 107.503906 188.425781 L 107.503906 283.574219 C 107.503906 287.953125 103.609375 291.503906 98.804688 291.503906 L 29.195312 291.503906 C 24.390625 291.503906 20.496094 287.953125 20.496094 283.574219 L 20.496094 188.425781 C 20.496094 184.046875 24.390625 180.496094 29.195312 180.496094 Z M 29.195312 180.496094 "
         transform="matrix(1,0,0,1,8,-156)"
         id="path24" />
    </g>
    <mask
       id="mask2">
      <g
         filter="url(#alpha)"
         id="g29">
        <rect
           x="0"
           y="0"
           width="16"
           height="16"
           style="fill:rgb(0%,0%,0%);fill-opacity:0.1;stroke:none;"
           id="rect27" />
      </g>
    </mask>
    <clipPath
       id="clip3">
      <rect
         x="0"
         y="0"
         width="192"
         height="152"
         id="rect32" />
    </clipPath>
    <g
       id="surface10824"
       clip-path="url(#clip3)">
      <path
         style="fill:none;stroke-width:0.99;stroke-linecap:butt;stroke-linejoin:miter;stroke:rgb(0%,0%,0%);stroke-opacity:1;stroke-dasharray:0.99,0.99;stroke-miterlimit:4;"
         d="M 20.417969 184.496094 L 107.582031 184.496094 C 111.957031 184.496094 115.503906 188.042969 115.503906 192.417969 L 115.503906 279.582031 C 115.503906 283.957031 111.957031 287.503906 107.582031 287.503906 L 20.417969 287.503906 C 16.042969 287.503906 12.496094 283.957031 12.496094 279.582031 L 12.496094 192.417969 C 12.496094 188.042969 16.042969 184.496094 20.417969 184.496094 Z M 20.417969 184.496094 "
         transform="matrix(1,0,0,1,8,-156)"
         id="path35" />
    </g>
    <mask
       id="mask3">
      <g
         filter="url(#alpha)"
         id="g40">
        <rect
           x="0"
           y="0"
           width="16"
           height="16"
           style="fill:rgb(0%,0%,0%);fill-opacity:0.1;stroke:none;"
           id="rect38" />
      </g>
    </mask>
    <clipPath
       id="clip4">
      <rect
         x="0"
         y="0"
         width="192"
         height="152"
         id="rect43" />
    </clipPath>
    <g
       id="surface10827"
       clip-path="url(#clip4)">
      <path
         style="fill:none;stroke-width:0.99;stroke-linecap:butt;stroke-linejoin:miter;stroke:rgb(0%,0%,0%);stroke-opacity:1;stroke-dasharray:0.99,0.99;stroke-miterlimit:4;"
         d="M 16.425781 200.496094 L 111.574219 200.496094 C 115.953125 200.496094 119.503906 204.390625 119.503906 209.195312 L 119.503906 278.804688 C 119.503906 283.609375 115.953125 287.503906 111.574219 287.503906 L 16.425781 287.503906 C 12.046875 287.503906 8.496094 283.609375 8.496094 278.804688 L 8.496094 209.195312 C 8.496094 204.390625 12.046875 200.496094 16.425781 200.496094 Z M 16.425781 200.496094 "
         transform="matrix(1,0,0,1,8,-156)"
         id="path46" />
    </g>
  </defs>
  <g
     id="surface10764">
    <rect
       x="0"
       y="0"
       width="16"
       height="16"
       style="fill:rgb(94.117647%,94.117647%,94.117647%);fill-opacity:1;stroke:none;"
       id="rect51" />
    <use
       xlink:href="#surface10818"
       transform="matrix(1,0,0,1,-168,-16)"
       mask="url(#mask0)"
       id="use53" />
    <use
       xlink:href="#surface10821"
       transform="matrix(1,0,0,1,-168,-16)"
       mask="url(#mask1)"
       id="use55" />
    <use
       xlink:href="#surface10824"
       transform="matrix(1,0,0,1,-168,-16)"
       mask="url(#mask2)"
       id="use57" />
    <use
       xlink:href="#surface10827"
       transform="matrix(1,0,0,1,-168,-16)"
       mask="url(#mask3)"
       id="use59" />
  </g>
  <rect
     style="fill:#000000;stroke:none;stroke-width:0.124724"
     id="rect899"
     width="14"
     height="14"
     x="1"
     y="1"
     rx="2" />
  <circle
     style="fill:none;stroke:#ffffff;stroke-width:0.225;stroke-opacity:1;stroke-miterlimit:4;stroke-dasharray:none"
     id="path1001"
     cx="13"
     cy="3"
     r="1" />
  <rect
     style="fill:#ffffff;stroke:none;stroke-width:0.134717;stroke-opacity:1"
     id="rect1017"
     width="1"
     height="3.5"
     x="7.5"
     y="5"
     rx="0.5" />
  <rect
     style="fill:#ffffff;stroke:none;stroke-width:0.134717;stroke-opacity:1"
     id="rect1017-1"
     width="1"
     height="3.5"
     x="7.5"
     y="7.5"
     rx="0.5" />
  <rect
     style="fill:#ffffff;stroke:none;stroke-width:0.134717;stroke-opacity:1"
     id="rect1017-2"
     width="1"
     height="3.5"
     x="7.5"
     y="-8.5"
     rx="0.5"
     transform="rotate(90)" />
  <rect
     style="fill:#ffffff;stroke:none;stroke-width:0.134717;stroke-opacity:1"
     id="rect1017-2-7"
     width="1"
     height="3.5"
     x="7.5"
     y="-11"
     rx="0.5"
     transform="rotate(90)" />
  <rect
     style="fill:none;stroke:#ffffff;stroke-width:0.625;stroke-opacity:1;stroke-miterlimit:4;stroke-dasharray:none"
     id="rect1139"
     width="6"
     height="6"
     x="5"
     y="5"
     rx="6" />
  <rect
     style="fill:#ffffff;stroke:none;stroke-width:0;stroke-miterlimit:4;stroke-dasharray:none;stroke-opacity:1"
     id="rect1141"
     width="1"
     height="1"
     x="1"
     y="6" />
  <rect
     style="fill:#ffffff;stroke:none;stroke-width:0;stroke-miterlimit:4;stroke-dasharray:none;stroke-opacity:1"
     id="rect1141-6"
     width="1"
     height="1"
     x="1"
     y="9" />
</svg>
