<?xml version="1.0" encoding="UTF-8" standalone="no"?>
<svg
   xmlns:dc="http://purl.org/dc/elements/1.1/"
   xmlns:cc="http://creativecommons.org/ns#"
   xmlns:rdf="http://www.w3.org/1999/02/22-rdf-syntax-ns#"
   xmlns:svg="http://www.w3.org/2000/svg"
   xmlns="http://www.w3.org/2000/svg"
   xmlns:sodipodi="http://sodipodi.sourceforge.net/DTD/sodipodi-0.dtd"
   xmlns:inkscape="http://www.inkscape.org/namespaces/inkscape"
   width="16px"
   height="16px"
   viewBox="0 0 16 16"
   version="1.1"
   id="svg62"
   sodipodi:docname="io.github.mpobaschnig.Vaults-symbolic.svg"
   inkscape:version="1.0.2 (e86c870879, 2021-01-15, custom)">
  <metadata
     id="metadata66">
    <rdf:RDF>
      <cc:Work
         rdf:about="">
        <dc:format>image/svg+xml</dc:format>
        <dc:type
           rdf:resource="http://purl.org/dc/dcmitype/StillImage" />
        <dc:title />
      </cc:Work>
    </rdf:RDF>
  </metadata>
  <sodipodi:namedview
     pagecolor="#ffffff"
     bordercolor="#666666"
     borderopacity="1"
     objecttolerance="10"
     gridtolerance="10"
     guidetolerance="10"
     inkscape:pageopacity="0"
     inkscape:pageshadow="2"
     inkscape:window-width="1920"
     inkscape:window-height="1011"
     id="namedview64"
     showgrid="true"
     inkscape:zoom="16"
     inkscape:cx="1.2285946"
     inkscape:cy="10.656039"
     inkscape:window-x="1920"
     inkscape:window-y="32"
     inkscape:window-maximized="1"
     inkscape:current-layer="svg62"
     showguides="true"
     inkscape:guide-bbox="true"
     inkscape:document-rotation="0">
    <inkscape:grid
       type="xygrid"
       id="grid891"
       empspacing="0.5" />
    <sodipodi:guide
       position="8,16.264031"
       orientation="1,0"
       id="guide1005" />
    <sodipodi:guide
       position="0.50165802,8"
       orientation="0,-1"
       id="guide1007" />
    <sodipodi:guide
       position="7.5,16"
       orientation="-1,0"
       id="guide1011"
       inkscape:label=""
       inkscape:locked="false"
       inkscape:color="rgb(0,0,255)" />
    <sodipodi:guide
       position="8.5,16"
       orientation="-1,0"
       id="guide1015"
       inkscape:label=""
       inkscape:locked="false"
       inkscape:color="rgb(0,0,255)" />
    <sodipodi:guide
       position="0,8.5"
       orientation="0,1"
       id="guide1019"
       inkscape:label=""
       inkscape:locked="false"
       inkscape:color="rgb(0,0,255)" />
    <sodipodi:guide
       position="0,7.5"
       orientation="0,1"
       id="guide1021"
       inkscape:label=""
       inkscape:locked="false"
       inkscape:color="rgb(0,0,255)" />
  </sodipodi:namedview>
  <defs
     id="defs49">
    <filter
       id="alpha"
       filterUnits="objectBoundingBox"
       x="0%"
       y="0%"
       width="100%"
       height="100%">
      <feColorMatrix
         type="matrix"
         in="SourceGraphic"
         values="0 0 0 0 1 0 0 0 0 1 0 0 0 0 1 0 0 0 1 0"
         id="feColorMatrix2" />
    </filter>
    <mask
       id="mask0">
      <g
         filter="url(#alpha)"
         id="g7">
        <rect
           x="0"
           y="0"
           width="16"
           height="16"
           style="fill:rgb(0%,0%,0%);fill-opacity:0.1;stroke:none;"
           id="rect5" />
      </g>
    </mask>
    <clipPath
       id="clip1">
      <rect
         x="0"
         y="0"
         width="192"
         height="152"
         id="rect10" />
    </clipPath>
    <g
       id="surface10818"
       clip-path="url(#clip1)">
      <path
         style="fill:none;stroke-width:0.99;stroke-linecap:butt;stroke-linejoin:miter;stroke:rgb(0%,0%,0%);stroke-opacity:1;stroke-dasharray:0.99,0.99;stroke-miterlimit:4;"
         d="M 123.503906 236 C 123.503906 268.863281 96.863281 295.503906 64 295.503906 C 31.136719 295.503906 4.496094 268.863281 4.496094 236 C 4.496094 203.136719 31.136719 176.496094 64 176.496094 C 96.863281 176.496094 123.503906 203.136719 123.503906 236 Z M 123.503906 236 "
         transform="matrix(1,0,0,1,8,-156)"
         id="path13" />
    </g>
    <mask
       id="mask1">
      <g
         filter="url(#alpha)"
         id="g18">
        <rect
           x="0"
           y="0"
           width="16"
           height="16"
           style="fill:rgb(0%,0%,0%);fill-opacity:0.1;stroke:none;"
           id="rect16" />
      </g>
    </mask>
    <clipPath
       id="clip2">
      <rect
         x="0"
         y="0"
         width="192"
         height="152"
         id="rect21" />
    </clipPath>
    <g
       id="surface10821"
       clip-path="url(#clip2)">
      <path
         style="fill:none;stroke-width:0.99;stroke-linecap:butt;stroke-linejoin:miter;stroke:rgb(0%,0%,0%);stroke-opacity:1;stroke-dasharray:0.99,0.99;stroke-miterlimit:4;"
         d="M 29.195312 180.496094 L 98.804688 180.496094 C 103.609375 180.496094 107.503906 184.046875 107.503906 188.425781 L 107.503906 283.574219 C 107.503906 287.953125 103.609375 291.503906 98.804688 291.503906 L 29.195312 291.503906 C 24.390625 291.503906 20.496094 287.953125 20.496094 283.574219 L 20.496094 188.425781 C 20.496094 184.046875 24.390625 180.496094 29.195312 180.496094 Z M 29.195312 180.496094 "
         transform="matrix(1,0,0,1,8,-156)"
         id="path24" />
    </g>
    <mask
       id="mask2">
      <g
         filter="url(#alpha)"
         id="g29">
        <rect
           x="0"
           y="0"
           width="16"
           height="16"
           style="fill:rgb(0%,0%,0%);fill-opacity:0.1;stroke:none;"
           id="rect27" />
      </g>
    </mask>
    <clipPath
       id="clip3">
      <rect
         x="0"
         y="0"
         width="192"
         height="152"
         id="rect32" />
    </clipPath>
    <g
       id="surface10824"
       clip-path="url(#clip3)">
      <path
         style="fill:none;stroke-width:0.99;stroke-linecap:butt;stroke-linejoin:miter;stroke:rgb(0%,0%,0%);stroke-opacity:1;stroke-dasharray:0.99,0.99;stroke-miterlimit:4;"
         d="M 20.417969 184.496094 L 107.582031 184.496094 C 111.957031 184.496094 115.503906 188.042969 115.503906 192.417969 L 115.503906 279.582031 C 115.503906 283.957031 111.957031 287.503906 107.582031 287.503906 L 20.417969 287.503906 C 16.042969 287.503906 12.496094 283.957031 12.496094 279.582031 L 12.496094 192.417969 C 12.496094 188.042969 16.042969 184.496094 20.417969 184.496094 Z M 20.417969 184.496094 "
         transform="matrix(1,0,0,1,8,-156)"
         id="path35" />
    </g>
    <mask
       id="mask3">
      <g
         filter="url(#alpha)"
         id="g40">
        <rect
           x="0"
           y="0"
           width="16"
           height="16"
           style="fill:rgb(0%,0%,0%);fill-opacity:0.1;stroke:none;"
           id="rect38" />
      </g>
    </mask>
    <clipPath
       id="clip4">
      <rect
         x="0"
         y="0"
         width="192"
         height="152"
         id="rect43" />
    </clipPath>
    <g
       id="surface10827"
       clip-path="url(#clip4)">
      <path
         style="fill:none;stroke-width:0.99;stroke-linecap:butt;stroke-linejoin:miter;stroke:rgb(0%,0%,0%);stroke-opacity:1;stroke-dasharray:0.99,0.99;stroke-miterlimit:4;"
         d="M 16.425781 200.496094 L 111.574219 200.496094 C 115.953125 200.496094 119.503906 204.390625 119.503906 209.195312 L 119.503906 278.804688 C 119.503906 283.609375 115.953125 287.503906 111.574219 287.503906 L 16.425781 287.503906 C 12.046875 287.503906 8.496094 283.609375 8.496094 278.804688 L 8.496094 209.195312 C 8.496094 204.390625 12.046875 200.496094 16.425781 200.496094 Z M 16.425781 200.496094 "
         transform="matrix(1,0,0,1,8,-156)"
         id="path46" />
    </g>
  </defs>
  <path
     id="rect899"
     clip-path="none"
     style="fill:#bebebe;fill-opacity:1;stroke:none;stroke-width:0.124724"
     d="M 3 1 C 1.892 1 1 1.892 1 3 L 1 6 L 2 6 L 2 7 L 1 7 L 1 9 L 2 9 L 2 10 L 1 10 L 1 13 C 1 14.108 1.892 15 3 15 L 13 15 C 14.108 15 15 14.108 15 13 L 15 3 C 15 1.892 14.108 1 13 1 L 3 1 z M 8 4 C 8.277 4 8.5 4.223 8.5 4.5 L 8.5 5.0449219 C 9.0926384 5.145078 9.6618157 5.4196292 10.121094 5.8789062 C 10.580371 6.3381833 10.854775 6.9073853 10.955078 7.5 L 11.5 7.5 C 11.777 7.5 12 7.723 12 8 C 12 8.277 11.777 8.5 11.5 8.5 L 10.955078 8.5 C 10.854775 9.0926148 10.580371 9.6618158 10.121094 10.121094 C 9.661816 10.580371 9.0926147 10.854775 8.5 10.955078 L 8.5 11.5 C 8.5 11.777 8.277 12 8 12 C 7.723 12 7.5 11.777 7.5 11.5 L 7.5 10.955078 C 6.9073854 10.854775 6.3381834 10.580371 5.8789062 10.121094 C 5.4196292 9.6618158 5.1452245 9.0926148 5.0449219 8.5 L 4.5 8.5 C 4.223 8.5 4 8.277 4 8 C 4 7.723 4.223 7.5 4.5 7.5 L 5.0449219 7.5 C 5.1452245 6.9073853 5.4196294 6.3381834 5.8789062 5.8789062 C 6.3381833 5.4196292 6.9073614 5.145078 7.5 5.0449219 L 7.5 4.5 C 7.5 4.223 7.723 4 8 4 z M 7.5 5.6542969 C 7.062355 5.7477907 6.6440229 5.9614459 6.3027344 6.3027344 C 5.9614459 6.6440229 5.7478048 7.0623452 5.6542969 7.5 L 7.5 7.5 L 7.5 5.6542969 z M 8.5 5.6542969 L 8.5 7.5 L 10.345703 7.5 C 10.252195 7.0623452 10.038554 6.6440229 9.6972656 6.3027344 C 9.3559771 5.9614459 8.937645 5.7477907 8.5 5.6542969 z M 5.6542969 8.5 C 5.7478048 8.9376548 5.9614459 9.3559771 6.3027344 9.6972656 C 6.6440229 10.038554 7.0623452 10.252195 7.5 10.345703 L 7.5 8.5 L 5.6542969 8.5 z M 8.5 8.5 L 8.5 10.345703 C 8.9376548 10.252195 9.3559771 10.038554 9.6972656 9.6972656 C 10.038554 9.3559771 10.252195 8.9376548 10.345703 8.5 L 8.5 8.5 z " />
</svg>
